<svg width="24" height="24" viewBox="0 0 24 24" fill="none" xmlns="http://www.w3.org/2000/svg">
<path d="M5 3H9C9.53043 3 10.0391 3.21071 10.4142 3.58579C10.7893 3.96086 11 4.46957 11 5V17C11 18.0609 10.5786 19.0783 9.82843 19.8284C9.07828 20.5786 8.06087 21 7 21C5.93913 21 4.92172 20.5786 4.17157 19.8284C3.42143 19.0783 3 18.0609 3 17V5C3 4.46957 3.21071 3.96086 3.58579 3.58579C3.96086 3.21071 4.46957 3 5 3Z" stroke="#F89659" stroke-width="2" stroke-linecap="round" stroke-linejoin="round"/>
<path d="M10.9996 7.35022L12.9996 5.35022C13.3747 4.97528 13.8833 4.76465 14.4136 4.76465C14.944 4.76465 15.4526 4.97528 15.8276 5.35022L18.6556 8.17822C19.0306 8.55328 19.2412 9.06189 19.2412 9.59222C19.2412 10.1225 19.0306 10.6312 18.6556 11.0062L9.65564 20.0062" stroke="#F89659" stroke-width="2" stroke-linecap="round" stroke-linejoin="round"/>
<path d="M16.7 13H19C19.5304 13 20.0391 13.2107 20.4142 13.5858C20.7893 13.9609 21 14.4696 21 15V19C21 19.5304 20.7893 20.0391 20.4142 20.4142C20.0391 20.7893 19.5304 21 19 21H7M7 17V17.01" stroke="#F89659" stroke-width="2" stroke-linecap="round" stroke-linejoin="round"/>
</svg>
